<svg xmlns="http://www.w3.org/2000/svg" width="900" height="900" viewBox="0 0 900 900">
  <defs>
    <linearGradient id="bghero" x1="0" y1="0" x2="1" y2="1">
      <stop offset="0%" stop-color="#F59E0B"/>
      <stop offset="100%" stop-color="#E2482C"/>
    </linearGradient>
    <pattern id="dotshero" width="40" height="40" patternUnits="userSpaceOnUse">
      <circle cx="2" cy="2" r="1.8" fill="#ffffff" fill-opacity="0.09"/>
    </pattern>
  </defs>
  <rect width="900" height="900" fill="url(#bghero)"/>
  <rect width="900" height="900" fill="url(#dotshero)"/>
  <circle cx="765.0" cy="90.0" r="198.0" fill="#ffffff" fill-opacity="0.08"/>
  <circle cx="72.0" cy="828.0" r="234.0" fill="#ffffff" fill-opacity="0.07"/>
  <g transform="translate(150.00000000000003,204.0) scale(1.7)"><circle cx="60" cy="60" r="54" fill="#ffffff" fill-opacity="0.16"/><g transform="translate(10,10)"><g fill="none" stroke="#fff" stroke-width="4" stroke-linejoin="round" stroke-linecap="round"><rect x="28" y="24" width="44" height="54" rx="5"/><path d="M40 24 V78" opacity="0.5"/><path d="M48 38 H62 M48 48 H62 M48 58 H58" opacity="0.8"/></g></g></g><g transform="translate(543.0,183.00000000000003) scale(1.15)"><circle cx="60" cy="60" r="54" fill="#ffffff" fill-opacity="0.16"/><g transform="translate(10,10)"><g fill="none" stroke="#fff" stroke-width="4" stroke-linecap="round" stroke-linejoin="round"><path d="M35 65 L68 32 a6 6 0 0 1 8 8 L43 73 L28 78 Z"/><path d="M60 40 L68 48"/></g></g></g><g transform="translate(336.0,444.0) scale(1.9)"><circle cx="60" cy="60" r="54" fill="#ffffff" fill-opacity="0.16"/><g transform="translate(10,10)"><g fill="none" stroke="#fff" stroke-width="4" stroke-linejoin="round" stroke-linecap="round"><path d="M35 40 a15 15 0 0 1 30 0 v6 h5 a6 6 0 0 1 6 6 v20 a8 8 0 0 1 -8 8 H32 a8 8 0 0 1 -8 -8 V52 a6 6 0 0 1 6 -6 h5 Z"/><path d="M40 46 h20 v10 h-20 Z" opacity="0.7"/><path d="M42 34 v-6 M58 34 v-6" opacity="0.6"/></g></g></g><g transform="translate(639.0,549.0) scale(1.05)"><circle cx="60" cy="60" r="54" fill="#ffffff" fill-opacity="0.16"/><g transform="translate(10,10)"><g fill="none" stroke="#fff" stroke-width="4" stroke-linejoin="round" stroke-linecap="round"><path d="M32 30 h36 l-10 20 h-16 Z"/><path d="M50 50 v22 M40 78 h20"/></g></g></g><g transform="translate(135.0,585.0) scale(1.05)"><circle cx="60" cy="60" r="54" fill="#ffffff" fill-opacity="0.16"/><g transform="translate(10,10)"><g fill="none" stroke="#fff" stroke-width="4" stroke-linejoin="round" stroke-linecap="round"><path d="M50 24 l7 15 16 2 -12 11 3 16 -14 -8 -14 8 3 -16 -12 -11 16 -2 Z"/></g></g></g>
</svg>