<svg xmlns="http://www.w3.org/2000/svg" width="900" height="900" viewBox="0 0 900 900">
  <defs>
    <linearGradient id="bggallery2" x1="0" y1="0" x2="1" y2="1">
      <stop offset="0%" stop-color="#0B63D6"/>
      <stop offset="100%" stop-color="#0EA5A0"/>
    </linearGradient>
    <pattern id="dotsgallery2" width="40" height="40" patternUnits="userSpaceOnUse">
      <circle cx="2" cy="2" r="1.8" fill="#ffffff" fill-opacity="0.09"/>
    </pattern>
  </defs>
  <rect width="900" height="900" fill="url(#bggallery2)"/>
  <rect width="900" height="900" fill="url(#dotsgallery2)"/>
  <circle cx="765.0" cy="90.0" r="198.0" fill="#ffffff" fill-opacity="0.08"/>
  <circle cx="72.0" cy="828.0" r="234.0" fill="#ffffff" fill-opacity="0.07"/>
  <g transform="translate(150.00000000000003,204.0) scale(1.7)"><circle cx="60" cy="60" r="54" fill="#ffffff" fill-opacity="0.16"/><g transform="translate(10,10)"><g fill="none" stroke="#fff" stroke-width="4" stroke-linejoin="round" stroke-linecap="round"><path d="M35 40 a15 15 0 0 1 30 0 v6 h5 a6 6 0 0 1 6 6 v20 a8 8 0 0 1 -8 8 H32 a8 8 0 0 1 -8 -8 V52 a6 6 0 0 1 6 -6 h5 Z"/><path d="M40 46 h20 v10 h-20 Z" opacity="0.7"/><path d="M42 34 v-6 M58 34 v-6" opacity="0.6"/></g></g></g><g transform="translate(543.0,183.00000000000003) scale(1.15)"><circle cx="60" cy="60" r="54" fill="#ffffff" fill-opacity="0.16"/><g transform="translate(10,10)"><g fill="none" stroke="#fff" stroke-width="4" stroke-linejoin="round" stroke-linecap="round"><path d="M44 22 h12 v10 l6 8 v34 a6 6 0 0 1 -6 6 H44 a6 6 0 0 1 -6 -6 V40 l6 -8 Z"/><path d="M38 52 h24" opacity="0.6"/></g></g></g><g transform="translate(336.0,444.0) scale(1.9)"><circle cx="60" cy="60" r="54" fill="#ffffff" fill-opacity="0.16"/><g transform="translate(10,10)"><g fill="none" stroke="#fff" stroke-width="4" stroke-linejoin="round" stroke-linecap="round"><path d="M30 42 h40 l-4 34 a4 4 0 0 1 -4 4 H38 a4 4 0 0 1 -4 -4 Z"/><path d="M38 42 v-6 a12 12 0 0 1 24 0 v6" /></g></g></g>
</svg>