<svg xmlns="http://www.w3.org/2000/svg" width="900" height="900" viewBox="0 0 900 900">
  <defs>
    <linearGradient id="bggallery6" x1="0" y1="0" x2="1" y2="1">
      <stop offset="0%" stop-color="#0B63D6"/>
      <stop offset="100%" stop-color="#0EA5A0"/>
    </linearGradient>
    <pattern id="dotsgallery6" width="40" height="40" patternUnits="userSpaceOnUse">
      <circle cx="2" cy="2" r="1.8" fill="#ffffff" fill-opacity="0.09"/>
    </pattern>
  </defs>
  <rect width="900" height="900" fill="url(#bggallery6)"/>
  <rect width="900" height="900" fill="url(#dotsgallery6)"/>
  <circle cx="765.0" cy="90.0" r="198.0" fill="#ffffff" fill-opacity="0.08"/>
  <circle cx="72.0" cy="828.0" r="234.0" fill="#ffffff" fill-opacity="0.07"/>
  <g transform="translate(150.00000000000003,204.0) scale(1.7)"><circle cx="60" cy="60" r="54" fill="#ffffff" fill-opacity="0.16"/><g transform="translate(10,10)"><g fill="none" stroke="#fff" stroke-width="4" stroke-linejoin="round" stroke-linecap="round"><rect x="26" y="42" width="48" height="32" rx="3"/><path d="M26 52 h48 M50 42 v32" opacity="0.7"/><path d="M50 42 c-8 -14 -22 -8 -14 0 c-8 -8 6 -18 14 0 Z" opacity="0.85"/></g></g></g><g transform="translate(543.0,183.00000000000003) scale(1.15)"><circle cx="60" cy="60" r="54" fill="#ffffff" fill-opacity="0.16"/><g transform="translate(10,10)"><g fill="none" stroke="#fff" stroke-width="4" stroke-linejoin="round" stroke-linecap="round"><rect x="24" y="24" width="52" height="52" rx="4"/><path d="M32 62 l12 -14 10 10 8 -10 8 10" opacity="0.75"/><circle cx="38" cy="38" r="4" fill="#fff" opacity="0.9"/></g></g></g><g transform="translate(336.0,444.0) scale(1.9)"><circle cx="60" cy="60" r="54" fill="#ffffff" fill-opacity="0.16"/><g transform="translate(10,10)"><g fill="none" stroke="#fff" stroke-width="4" stroke-linejoin="round" stroke-linecap="round"><path d="M32 30 h36 l-10 20 h-16 Z"/><path d="M50 50 v22 M40 78 h20"/></g></g></g>
</svg>