<svg xmlns="http://www.w3.org/2000/svg" width="900" height="900" viewBox="0 0 900 900">
  <defs>
    <linearGradient id="bggallery4" x1="0" y1="0" x2="1" y2="1">
      <stop offset="0%" stop-color="#0B63D6"/>
      <stop offset="100%" stop-color="#0EA5A0"/>
    </linearGradient>
    <pattern id="dotsgallery4" width="40" height="40" patternUnits="userSpaceOnUse">
      <circle cx="2" cy="2" r="1.8" fill="#ffffff" fill-opacity="0.09"/>
    </pattern>
  </defs>
  <rect width="900" height="900" fill="url(#bggallery4)"/>
  <rect width="900" height="900" fill="url(#dotsgallery4)"/>
  <circle cx="765.0" cy="90.0" r="198.0" fill="#ffffff" fill-opacity="0.08"/>
  <circle cx="72.0" cy="828.0" r="234.0" fill="#ffffff" fill-opacity="0.07"/>
  <g transform="translate(150.00000000000003,204.0) scale(1.7)"><circle cx="60" cy="60" r="54" fill="#ffffff" fill-opacity="0.16"/><g transform="translate(10,10)"><g fill="none" stroke="#fff" stroke-width="4" stroke-linejoin="round" stroke-linecap="round"><path d="M50 24 c14 16 18 26 18 34 a18 18 0 0 1 -36 0 c0 -8 4 -18 18 -34 Z"/></g></g></g><g transform="translate(543.0,183.00000000000003) scale(1.15)"><circle cx="60" cy="60" r="54" fill="#ffffff" fill-opacity="0.16"/><g transform="translate(10,10)"><g fill="none" stroke="#fff" stroke-width="4" stroke-linejoin="round" stroke-linecap="round"><path d="M60 26 L74 40 L48 66 a10 10 0 0 1 -14 0 a10 10 0 0 1 0 -14 Z"/><path d="M34 66 c-4 6 -4 12 -8 16" /></g></g></g><g transform="translate(336.0,444.0) scale(1.9)"><circle cx="60" cy="60" r="54" fill="#ffffff" fill-opacity="0.16"/><g transform="translate(10,10)"><g fill="none" stroke="#fff" stroke-width="4" stroke-linejoin="round" stroke-linecap="round"><path d="M50 24 l7 15 16 2 -12 11 3 16 -14 -8 -14 8 3 -16 -12 -11 16 -2 Z"/></g></g></g>
</svg>