<svg xmlns="http://www.w3.org/2000/svg" width="800" height="800" viewBox="0 0 800 800">
  <defs>
    <linearGradient id="bgofficesuppliesstaplers" x1="0" y1="0" x2="1" y2="1">
      <stop offset="0%" stop-color="#0EA5A0"/>
      <stop offset="100%" stop-color="#0A6E6B"/>
    </linearGradient>
    <radialGradient id="glowofficesuppliesstaplers" cx="32%" cy="20%" r="70%">
      <stop offset="0%" stop-color="#ffffff" stop-opacity="0.26"/>
      <stop offset="100%" stop-color="#ffffff" stop-opacity="0"/>
    </radialGradient>
    <radialGradient id="vignofficesuppliesstaplers" cx="50%" cy="50%" r="72%">
      <stop offset="60%" stop-color="#000000" stop-opacity="0"/>
      <stop offset="100%" stop-color="#000000" stop-opacity="0.16"/>
    </radialGradient>
    <radialGradient id="stageofficesuppliesstaplers" cx="50%" cy="50%" r="50%">
      <stop offset="0%" stop-color="#000000" stop-opacity="0.28"/>
      <stop offset="100%" stop-color="#000000" stop-opacity="0"/>
    </radialGradient>
    <radialGradient id="platofficesuppliesstaplers" cx="42%" cy="38%" r="65%">
      <stop offset="0%" stop-color="#ffffff" stop-opacity="0.30"/>
      <stop offset="100%" stop-color="#ffffff" stop-opacity="0.09"/>
    </radialGradient>
    <pattern id="dotsofficesuppliesstaplers" width="34" height="34" patternUnits="userSpaceOnUse">
      <circle cx="2" cy="2" r="1.6" fill="#ffffff" fill-opacity="0.09"/>
    </pattern>
    <filter id="softofficesuppliesstaplers" x="-40%" y="-40%" width="180%" height="180%">
      <feDropShadow dx="0" dy="10" stdDeviation="10" flood-color="#00122e" flood-opacity="0.28"/>
    </filter>
  </defs>
  <rect width="800" height="800" fill="url(#bgofficesuppliesstaplers)"/>
  <rect width="800" height="800" fill="url(#dotsofficesuppliesstaplers)"/>
  <rect width="800" height="800" fill="url(#glowofficesuppliesstaplers)"/>
  <circle cx="688.0" cy="720.0" r="240.0" fill="#ffffff" fill-opacity="0.07"/>
  <circle cx="80.0" cy="64.0" r="120.0" fill="#ffffff" fill-opacity="0.08"/>
  <ellipse cx="400.0" cy="624.0" rx="192.0" ry="36.0" fill="url(#stageofficesuppliesstaplers)"/>
  <g filter="url(#softofficesuppliesstaplers)">
    <circle cx="400.0" cy="368.0" r="180.0" fill="url(#platofficesuppliesstaplers)" stroke="#ffffff" stroke-opacity="0.35" stroke-width="1.5"/>
    <g transform="translate(300.0,268.0) scale(2)">
      <g fill="none" stroke="#fff" stroke-width="4" stroke-linejoin="round" stroke-linecap="round"><path d="M24 36 h18 l6 8 h28 v32 a4 4 0 0 1 -4 4 H28 a4 4 0 0 1 -4 -4 Z"/></g>
    </g>
  </g>
  <rect width="800" height="800" fill="url(#vignofficesuppliesstaplers)"/>
</svg>