<svg xmlns="http://www.w3.org/2000/svg" width="800" height="800" viewBox="0 0 800 800">
  <defs>
    <linearGradient id="bgschoolsuppliesschoolacce" x1="0" y1="0" x2="1" y2="1">
      <stop offset="0%" stop-color="#334155"/>
      <stop offset="100%" stop-color="#0B63D6"/>
    </linearGradient>
    <radialGradient id="glowschoolsuppliesschoolacce" cx="32%" cy="20%" r="70%">
      <stop offset="0%" stop-color="#ffffff" stop-opacity="0.26"/>
      <stop offset="100%" stop-color="#ffffff" stop-opacity="0"/>
    </radialGradient>
    <radialGradient id="vignschoolsuppliesschoolacce" cx="50%" cy="50%" r="72%">
      <stop offset="60%" stop-color="#000000" stop-opacity="0"/>
      <stop offset="100%" stop-color="#000000" stop-opacity="0.16"/>
    </radialGradient>
    <radialGradient id="stageschoolsuppliesschoolacce" cx="50%" cy="50%" r="50%">
      <stop offset="0%" stop-color="#000000" stop-opacity="0.28"/>
      <stop offset="100%" stop-color="#000000" stop-opacity="0"/>
    </radialGradient>
    <radialGradient id="platschoolsuppliesschoolacce" cx="42%" cy="38%" r="65%">
      <stop offset="0%" stop-color="#ffffff" stop-opacity="0.30"/>
      <stop offset="100%" stop-color="#ffffff" stop-opacity="0.09"/>
    </radialGradient>
    <pattern id="dotsschoolsuppliesschoolacce" width="34" height="34" patternUnits="userSpaceOnUse">
      <circle cx="2" cy="2" r="1.6" fill="#ffffff" fill-opacity="0.09"/>
    </pattern>
    <filter id="softschoolsuppliesschoolacce" x="-40%" y="-40%" width="180%" height="180%">
      <feDropShadow dx="0" dy="10" stdDeviation="10" flood-color="#00122e" flood-opacity="0.28"/>
    </filter>
  </defs>
  <rect width="800" height="800" fill="url(#bgschoolsuppliesschoolacce)"/>
  <rect width="800" height="800" fill="url(#dotsschoolsuppliesschoolacce)"/>
  <rect width="800" height="800" fill="url(#glowschoolsuppliesschoolacce)"/>
  <circle cx="688.0" cy="720.0" r="240.0" fill="#ffffff" fill-opacity="0.07"/>
  <circle cx="80.0" cy="64.0" r="120.0" fill="#ffffff" fill-opacity="0.08"/>
  <ellipse cx="400.0" cy="624.0" rx="192.0" ry="36.0" fill="url(#stageschoolsuppliesschoolacce)"/>
  <g filter="url(#softschoolsuppliesschoolacce)">
    <circle cx="400.0" cy="368.0" r="180.0" fill="url(#platschoolsuppliesschoolacce)" stroke="#ffffff" stroke-opacity="0.35" stroke-width="1.5"/>
    <g transform="translate(300.0,268.0) scale(2)">
      <g fill="none" stroke="#fff" stroke-width="4" stroke-linejoin="round" stroke-linecap="round"><path d="M35 40 a15 15 0 0 1 30 0 v6 h5 a6 6 0 0 1 6 6 v20 a8 8 0 0 1 -8 8 H32 a8 8 0 0 1 -8 -8 V52 a6 6 0 0 1 6 -6 h5 Z"/><path d="M40 46 h20 v10 h-20 Z" opacity="0.7"/><path d="M42 34 v-6 M58 34 v-6" opacity="0.6"/></g>
    </g>
  </g>
  <rect width="800" height="800" fill="url(#vignschoolsuppliesschoolacce)"/>
</svg>