<svg xmlns="http://www.w3.org/2000/svg" width="800" height="800" viewBox="0 0 800 800">
  <defs>
    <linearGradient id="bgarduinostarterkituno2" x1="0" y1="0" x2="1" y2="1">
      <stop offset="0%" stop-color="#6D5DF5"/>
      <stop offset="100%" stop-color="#4433B0"/>
    </linearGradient>
    <radialGradient id="glowarduinostarterkituno2" cx="32%" cy="20%" r="70%">
      <stop offset="0%" stop-color="#ffffff" stop-opacity="0.26"/>
      <stop offset="100%" stop-color="#ffffff" stop-opacity="0"/>
    </radialGradient>
    <radialGradient id="vignarduinostarterkituno2" cx="50%" cy="50%" r="72%">
      <stop offset="60%" stop-color="#000000" stop-opacity="0"/>
      <stop offset="100%" stop-color="#000000" stop-opacity="0.16"/>
    </radialGradient>
    <radialGradient id="stagearduinostarterkituno2" cx="50%" cy="50%" r="50%">
      <stop offset="0%" stop-color="#000000" stop-opacity="0.28"/>
      <stop offset="100%" stop-color="#000000" stop-opacity="0"/>
    </radialGradient>
    <radialGradient id="platarduinostarterkituno2" cx="42%" cy="38%" r="65%">
      <stop offset="0%" stop-color="#ffffff" stop-opacity="0.30"/>
      <stop offset="100%" stop-color="#ffffff" stop-opacity="0.09"/>
    </radialGradient>
    <pattern id="dotsarduinostarterkituno2" width="34" height="34" patternUnits="userSpaceOnUse">
      <circle cx="2" cy="2" r="1.6" fill="#ffffff" fill-opacity="0.09"/>
    </pattern>
    <filter id="softarduinostarterkituno2" x="-40%" y="-40%" width="180%" height="180%">
      <feDropShadow dx="0" dy="10" stdDeviation="10" flood-color="#00122e" flood-opacity="0.28"/>
    </filter>
  </defs>
  <rect width="800" height="800" fill="url(#bgarduinostarterkituno2)"/>
  <rect width="800" height="800" fill="url(#dotsarduinostarterkituno2)"/>
  <rect width="800" height="800" fill="url(#glowarduinostarterkituno2)"/>
  <circle cx="688.0" cy="720.0" r="240.0" fill="#ffffff" fill-opacity="0.07"/>
  <circle cx="80.0" cy="64.0" r="120.0" fill="#ffffff" fill-opacity="0.08"/>
  <ellipse cx="400.0" cy="624.0" rx="192.0" ry="36.0" fill="url(#stagearduinostarterkituno2)"/>
  <g filter="url(#softarduinostarterkituno2)">
    <circle cx="400.0" cy="368.0" r="180.0" fill="url(#platarduinostarterkituno2)" stroke="#ffffff" stroke-opacity="0.35" stroke-width="1.5"/>
    <g transform="translate(300.0,268.0) scale(2)">
      <g fill="none" stroke="#fff" stroke-width="4" stroke-linejoin="round" stroke-linecap="round"><circle cx="30" cy="34" r="5"/><circle cx="70" cy="34" r="5"/><circle cx="30" cy="70" r="5"/><circle cx="70" cy="70" r="5"/><path d="M35 34 h30 M30 39 v26 M70 39 v26 M35 70 h30"/></g>
    </g>
  </g>
  <rect width="800" height="800" fill="url(#vignarduinostarterkituno2)"/>
</svg>