<svg xmlns="http://www.w3.org/2000/svg" width="800" height="800" viewBox="0 0 800 800">
  <defs>
    <linearGradient id="bgnotebookauradotgrid1" x1="0" y1="0" x2="1" y2="1">
      <stop offset="0%" stop-color="#334155"/>
      <stop offset="100%" stop-color="#0B63D6"/>
    </linearGradient>
    <radialGradient id="glownotebookauradotgrid1" cx="32%" cy="20%" r="70%">
      <stop offset="0%" stop-color="#ffffff" stop-opacity="0.26"/>
      <stop offset="100%" stop-color="#ffffff" stop-opacity="0"/>
    </radialGradient>
    <radialGradient id="vignnotebookauradotgrid1" cx="50%" cy="50%" r="72%">
      <stop offset="60%" stop-color="#000000" stop-opacity="0"/>
      <stop offset="100%" stop-color="#000000" stop-opacity="0.16"/>
    </radialGradient>
    <radialGradient id="stagenotebookauradotgrid1" cx="50%" cy="50%" r="50%">
      <stop offset="0%" stop-color="#000000" stop-opacity="0.28"/>
      <stop offset="100%" stop-color="#000000" stop-opacity="0"/>
    </radialGradient>
    <radialGradient id="platnotebookauradotgrid1" cx="42%" cy="38%" r="65%">
      <stop offset="0%" stop-color="#ffffff" stop-opacity="0.30"/>
      <stop offset="100%" stop-color="#ffffff" stop-opacity="0.09"/>
    </radialGradient>
    <pattern id="dotsnotebookauradotgrid1" width="34" height="34" patternUnits="userSpaceOnUse">
      <circle cx="2" cy="2" r="1.6" fill="#ffffff" fill-opacity="0.09"/>
    </pattern>
    <filter id="softnotebookauradotgrid1" x="-40%" y="-40%" width="180%" height="180%">
      <feDropShadow dx="0" dy="10" stdDeviation="10" flood-color="#00122e" flood-opacity="0.28"/>
    </filter>
  </defs>
  <rect width="800" height="800" fill="url(#bgnotebookauradotgrid1)"/>
  <rect width="800" height="800" fill="url(#dotsnotebookauradotgrid1)"/>
  <rect width="800" height="800" fill="url(#glownotebookauradotgrid1)"/>
  <circle cx="688.0" cy="720.0" r="240.0" fill="#ffffff" fill-opacity="0.07"/>
  <circle cx="80.0" cy="64.0" r="120.0" fill="#ffffff" fill-opacity="0.08"/>
  <ellipse cx="400.0" cy="624.0" rx="192.0" ry="36.0" fill="url(#stagenotebookauradotgrid1)"/>
  <g filter="url(#softnotebookauradotgrid1)">
    <circle cx="400.0" cy="368.0" r="180.0" fill="url(#platnotebookauradotgrid1)" stroke="#ffffff" stroke-opacity="0.35" stroke-width="1.5"/>
    <g transform="translate(300.0,268.0) scale(2)">
      <g fill="none" stroke="#fff" stroke-width="4" stroke-linejoin="round" stroke-linecap="round"><rect x="28" y="24" width="44" height="54" rx="5"/><path d="M40 24 V78" opacity="0.5"/><path d="M48 38 H62 M48 48 H62 M48 58 H58" opacity="0.8"/></g>
    </g>
  </g>
  <rect width="800" height="800" fill="url(#vignnotebookauradotgrid1)"/>
</svg>